<?xml version="1.0" encoding="UTF-8"?>
<svg xmlns="http://www.w3.org/2000/svg" viewBox="0 0 3333.3 3333.3" width="200" height="200">
  <path fill="#adddf6" fill-rule="nonzero" d="m687.6,2331.1l948.9,-0l0,-1803.7L687.6,527.4Z"/>
  <path fill="#adddf6" fill-rule="nonzero" d="m1683.3,527.4l0,1803.7l942.5,-0l0,-1803.7l-942.5,-0"/>
  <path fill="#688ec9" fill-rule="nonzero" d="m2424.7,2813.5l0,-0c-114.1,-0 -206.6,-92.5 -206.6,-206.6l0,-281.7l413.2,-0L2631.3,2606.9c0,114.1 -92.5,206.6 -206.6,206.6"/>
  <path fill="#0f0f10" fill-rule="nonzero" d="m2218.1,2975.3l-22.9,-0l0,-437.2l22.9,-0L2218.1,2975.3"/>
  <path fill="#0f0f10" fill-rule="nonzero" d="m2654.2,2975.3l-22.9,-0l0,-437.2l22.9,-0L2654.2,2975.3"/>
  <path fill="#0f0f10" fill-rule="nonzero" d="m2479,2975.3l-22.9,-0l0,-437.2l22.9,-0L2479,2975.3"/>
  <path fill="#0f0f10" fill-rule="nonzero" d="m2195.2,2836.4l0,-22.9l437.2,-0l0,22.9l-437.2,-0"/>
  <path fill="#ffc959" fill-rule="nonzero" d="m2668,1823.7c30.4,31.4 -14.1,70.1 -13.7,120.5 0.4,50.4 61.2,68.8 12.1,142.9 -30.2,45.7 -69.9,-1.9 -89.8,63.8 -19.9,65.6 5.3,72 -24.7,99.3 -52.3,47.7 -155.7,-21.7 -135.5,-87.3 20.2,-65.6 82,-70.2 45.6,-115.5 -36.4,-45.3 -50.4,-65 -6,-98.7 55,-41.6 112.8,-21.2 110,-68.4 -2.8,-47.2 61.9,-98.2 102.1,-56.6"/>
  <path fill="#0f0f10" fill-rule="nonzero" d="m2485.8,2322.4 l-10.5,-0.3c8,-247.6 137.7,-441.3 139,-443.3l8.7,5.9c-1.3,1.9 -129.3,193.3 -137.2,437.7"/>
  <path fill="#ec5a26" fill-rule="nonzero" d="m2140.6,1658c-40.7,42 18.8,93.8 18.3,161.3 -0.5,67.5 -78.8,65.9 -13.1,165.2 40.5,61.1 60.7,37.7 49.3,141.3 -10.1,91.2 81.3,31 113.6,96.9 41.7,85.1 185.7,-25.2 158.8,-113 -27,-87.8 -91.5,-88.3 -42.8,-148.9 48.7,-60.6 34.3,-122.8 -25.2,-167.9 -73.5,-55.7 -125.9,4.2 -122.2,-59 3.7,-63.2 -82.8,-131.4 -136.7,-75.8"/>
  <path fill="#0f0f10" fill-rule="nonzero" d="m2384.5,2325.5c-10.6,-327.4 -181.9,-583.3 -183.6,-585.9l11.6,-7.9c1.7,2.6 175.3,261.9 186.1,593.3l-14,0.5"/>
  <path fill="#2d5b98" fill-rule="nonzero" d="M223.5,3007.9L3179.4,3007.9c9,-0 16.3,-7.3 16.3,-16.3 0,-9 -7.3,-16.3 -16.3,-16.3L223.5,2975.3c-9,-0 -16.3,7.3 -16.3,16.3 0,9 7.3,16.3 16.3,16.3"/>
  <path fill="#0f0f10" fill-rule="nonzero" d="m1752,2975.3l72.4,-0l7.5,-157.3l-87.3,-0l7.5,157.3"/>
  <path fill="#0f0f10" fill-rule="nonzero" d="m494.3,2975.3l72.4,-0l7.5,-157.3l-87.3,-0l7.5,157.3"/>
  <path fill="#e87c24" fill-rule="nonzero" d="m557.3,2544.8c8,24.7 16.7,50.1 26.2,76.2l1201.4,-0c0,-0 155.1,-631.1 0,-746.5 -4,-2.9 -8.7,-5.9 -14.3,-8.7 -208.8,-107.3 -1046.1,-132.5 -1216,5.5 -1.3,1 -2.5,2.1 -3.7,3.1 -62.6,57.5 -117.1,287 6.4,670.3"/>
  <path fill="#982d21" fill-rule="nonzero" d="m1332,2621l452.7,-0L1740.5,2178.7C1661.6,2212.9 1451.4,2393.8 1332,2621"/>
  <path fill="#982d21" fill-rule="nonzero" d="m557.3,2544.8c8,24.7 16.7,50.1 26.2,76.2L1019.9,2621C944.9,2481.8 762.9,2271 586.2,2174L557.3,2544.8"/>
  <path fill="#e87c24" fill-rule="nonzero" d="m406.8,2172.5l166.6,-0c28,-0 51.7,20.7 55.3,48.5l53.1,401.7l973.5,-0l53.1,-401.7c3.7,-27.7 27.3,-48.5 55.3,-48.5l166.6,-0c34.7,-0 61.1,31.4 54.9,65.6L1892.8,2907.1L1801.3,2907.1 447.3,2907.1 444.3,2907.1L351.9,2238.1c-6.1,-34.2 20.2,-65.6 54.9,-65.6"/>
  <path fill="#f0af66" fill-rule="nonzero" d="m691.5,2403.3c-78.4,26.2 -63.1,192.2 0,217.7l950.9,-0c71,-18.3 77,-237.9 -25.4,-221.3C990.2,2517.5 959.9,2329.5 691.5,2403.3"/>
  <path fill="#027980" fill-rule="nonzero" d="m1416.3,2235.1c0.3,42.9 -2,83.2 -6.6,118.5L963.8,2353.6l-26.4,-435.4c26.5,-159 99,-197.6 213.8,-197.6 102.7,-0 171.1,83.8 212.7,195.9 35.9,96.9 51.8,214.9 52.5,318.5"/>
  <path fill="#005459" fill-rule="nonzero" d="m1416.3,2243.5 l-161.4,-9.7c89.6,-29.3 96.7,-166.8 5.6,-252.4l103.3,-64.8c35.9,96.9 51.8,223.4 52.5,326.9"/>
  <path fill="#0f0f10" fill-rule="nonzero" d="M1447,2443.5L834.4,2443.5l0,-208.5l551.8,-0l60.8,208.5"/>
  <path fill="#0f0f10" fill-rule="nonzero" d="M756.1,2377.4 L920.7,2975.3L1049,2975.3C1008.4,2720.9 1017.5,2555.5 979.3,2344.2 945.8,2170.8 716.3,2216.7 756.1,2377.4"/>
  <path fill="#b05726" fill-rule="nonzero" d="m966.8,2975.3c0,-0.4 0,-0.8 0,-1.2 0,-44.3 -35.9,-80.3 -80.3,-80.3 -44.3,-0 -80.3,35.9 -80.3,80.3 0,0.4 0,0.8 0,1.2l160.4,-0"/>
  <path fill="#b05726" fill-rule="nonzero" d="m871.1,2895.3 l29.2,-8.9c19.3,-37.9 101.4,-33.2 89.9,12.9 32.2,4.8 49.2,-11.3 49.2,-11.3l9.6,87.2L875,2975.3l-3.9,-79.9"/>
  <path fill="#0f0f10" fill-rule="nonzero" d="M1478.7,2377.4 L1314.1,2975.3L1185.8,2975.3C1226.4,2720.9 1217.3,2555.5 1255.5,2344.2 1289.1,2170.8 1518.5,2216.7 1478.7,2377.4"/>
  <path fill="#b05726" fill-rule="nonzero" d="m1268,2975.3c-0,-0.4 -0,-0.8 -0,-1.2 0,-44.3 35.9,-80.3 80.3,-80.3 44.3,-0 80.3,35.9 80.3,80.3 0,0.4 -0,0.8 -0,1.2L1268,2975.3"/>
  <path fill="#b05726" fill-rule="nonzero" d="m1363.7,2895.3 l-29.2,-8.9c-19.3,-37.9 -101.4,-33.2 -89.9,12.9 -32.2,4.8 -49.2,-11.3 -49.2,-11.3l-9.6,87.2l174,-0l3.9,-79.9"/>
  <path fill="#027980" fill-rule="nonzero" d="m1219.9,1734.6c-60.2,36.5 -68.8,145 -37.9,188.2l171.7,127.9 -174.8,90 28.4,93c0,-0 182.5,-14.9 271.8,-106.5 85.8,-88 -123.3,-346.4 -259.2,-392.6"/>
  <path fill="#0f0f10" fill-rule="nonzero" d="m1216.4,2133c-2.3,-0 -4.2,-1.8 -4.4,-4.1 -0.1,-0.9 -1.2,-21.2 36.8,-28.9 27.9,-5.7 80.6,-38.7 97.3,-49.5 -20,-15.3 -92.3,-71.7 -111.9,-100.8 -1.4,-2 -0.8,-4.8 1.2,-6.1 2,-1.4 4.8,-0.8 6.2,1.2 21.4,31.9 113.9,101.7 114.9,102.4 1.1,0.9 1.8,2.2 1.8,3.7 -0,1.4 -0.8,2.8 -2,3.6 -2.9,1.9 -70.6,47.2 -105.7,54.3 -29.7,6 -29.7,19.5 -29.7,19.6 0.2,2.4 -1.6,4.5 -4.1,4.7l-0.3,0"/>
  <path fill="#027980" fill-rule="nonzero" d="m1097.8,1899.1c51.5,-64.6 15.9,-164.5 -49.7,-161.6C834.4,1812.8 768.5,2021.7 836.1,2115.4 894.1,2195.8 1149.3,2226.7 1149.3,2226.7l0,-87.9l-177.3,-38.3c0,-0 91.4,-141.6 125.8,-201.3"/>
  <path fill="#f7a593" fill-rule="nonzero" d="m1285,2204.4c3.3,-29.5 -13.9,-66.3 -58.2,-74.3 -77.4,-14.1 -105.4,28.4 -112.8,58.8 -1.9,7.9 5.3,16.3 11.9,15.5 6.6,-0.7 11.3,-4.5 12.5,-10.5 1.4,-7.3 5.2,-16.2 13.5,-20.9 -8,15.7 -4.7,31.4 17.1,31.4l116,-0"/>
  <path fill="#9ebde3" fill-rule="nonzero" d="m1110.2,2204.3 l-60.9,-305.5l-12.9,-0c4.1,21 64.1,326.7 65.9,336.3 16,-0 162.7,-0 182.6,-0l19.9,-30.8L1110.2,2204.3"/>
  <path fill="#ffffff" fill-rule="nonzero" d="M1036.4,1898.8L583,1898.8l67.1,336.3L1102.3,2235.1l-65.9,-336.3"/>
  <path fill="#f7a593" fill-rule="nonzero" d="m1168.6,1756.5c0,34.8 -104.2,57.8 -138.3,21.3 -5.2,-5.5 -8.7,-12.3 -10.1,-20.6l-19.6,-88 124.4,-46.9 3.7,11.5 39.8,122.8"/>
  <path fill="#d87661" fill-rule="nonzero" d="m1020.2,1757.2 l-19.6,-88 117.7,-31.7c30.5,90.7 -78.3,163.2 -98.1,119.7"/>
  <path fill="#f7a593" fill-rule="nonzero" d="m1134.3,1588.4c6.6,86.5 -61.8,162.7 -119.2,166.6 -57.4,3.9 -136.4,-60.2 -142.9,-146.8 -6.6,-86.5 46.8,-161.1 119.2,-166.6 72.4,-5.5 136.4,60.2 142.9,146.8"/>
  <path fill="#0f0f10" fill-rule="nonzero" d="m1038.3,1448.2c-79.3,-50.2 -123,-3 -162.5,47.1 -27.7,35.2 -47.4,60.4 -81.9,65.7 66.4,83.7 199.1,28.5 240.9,-55.4 4.1,47.7 60.4,87.3 99.4,82.7 12.6,-53.1 -24.2,-160.6 -95.9,-140.2"/>
  <path fill="#f7a593" fill-rule="nonzero" d="m1153.7,1589.6c0,19.1 -15.5,34.5 -34.5,34.5 -19.1,-0 -34.5,-15.5 -34.5,-34.5 0,-19.1 15.5,-34.5 34.5,-34.5 19.1,-0 34.5,15.5 34.5,34.5"/>
  <path fill="#bd4a31" fill-rule="nonzero" d="m970.5,1696.9c-1.6,-0 -3.1,-0.3 -4.5,-1.1 -8.1,-4.3 -6.2,-49.4 -5.5,-63.1 0.1,-1 0.9,-1.7 1.9,-1.7 1,0.1 1.7,0.9 1.7,1.9 -1.5,27 -0.6,57.5 3.6,59.8 5.5,2.9 16.6,-4.8 20.4,-8.1 0.7,-0.6 1.9,-0.5 2.5,0.2 0.6,0.7 0.5,1.9 -0.2,2.5 -1.3,1.1 -11.5,9.6 -19.8,9.6"/>
  <path fill="#0f0f10" fill-rule="nonzero" d="m1015.6,1615.8c2.4,6.7 7,11.2 10.3,10 3.3,-1.2 4.1,-7.5 1.7,-14.2 -2.4,-6.7 -7,-11.2 -10.3,-10 -3.3,1.2 -4.1,7.5 -1.7,14.2"/>
  <path fill="#0f0f10" fill-rule="nonzero" d="m909.9,1656.1c2.2,6.2 6.5,10.4 9.6,9.3 3.1,-1.1 3.8,-7 1.6,-13.3 -2.2,-6.2 -6.5,-10.4 -9.6,-9.3 -3.1,1.1 -3.8,7 -1.6,13.3"/>
  <path fill="#803220" fill-rule="nonzero" d="m1020.2,1708.6c-0.5,-0 -1.1,-0.3 -1.4,-0.7 -0.6,-0.8 -0.4,-1.9 0.4,-2.5 0.6,-0.4 14.2,-10.1 34.3,-4.3 0.9,0.3 1.5,1.3 1.2,2.2 -0.3,0.9 -1.2,1.5 -2.2,1.2 -18.5,-5.3 -31.2,3.7 -31.3,3.8 -0.3,0.2 -0.7,0.3 -1,0.3"/>
  <path fill="#803220" fill-rule="nonzero" d="m1040.4,1592c-0.5,-0 -1,-0.2 -1.4,-0.6 -0.5,-0.5 -11.5,-13.2 -29.7,-5.9 -0.9,0.4 -1.9,-0.1 -2.3,-1 -0.4,-0.9 0.1,-1.9 1,-2.3 20.6,-8.3 33.6,6.8 33.7,6.9 0.6,0.8 0.5,1.9 -0.2,2.5 -0.3,0.3 -0.7,0.4 -1.1,0.4"/>
  <path fill="#803220" fill-rule="nonzero" d="m897.4,1648c-1,-0 -1.8,-0.8 -1.8,-1.8 0,-14.3 11.1,-20 11.5,-20.3 0.9,-0.5 1.9,-0.1 2.4,0.8 0.4,0.9 0.1,1.9 -0.8,2.4 -0.4,0.2 -9.6,5.1 -9.6,17.1 0,1 -0.8,1.8 -1.8,1.8"/>
  <defs><clipPath id="clip0"><path d="m687.6,1637.5l2508.1,-0L3195.7,0L687.6,0Z"/></clipPath></defs>
  <g clip-path="url(#clip0)">
    <path fill="#1d3666" fill-rule="nonzero" d="m1482.8,1080.2 l22.8,211c15.5,71.6 95.1,71.3 115.5,15.2 45.3,-124.6 22.6,-180 15.2,-249.9 -14.2,-130.2 -167.7,-106.5 -153.5,23.8"/>
    <path fill="#ffffff" fill-rule="nonzero" d="m2804.5,1079.3 l71.9,-30.6c26.1,-16.3 55.6,30.9 29.5,47.2l-63.8,43.7c-16.6,10.3 -54.2,-50 -37.6,-60.3"/>
    <path fill="#1d3666" fill-rule="nonzero" d="m2970.9,1107.9 l-60.9,-4.5c-12,-53.1 -60.4,-24.9 -56.9,-49.8 3.5,-24.9 37.8,-67 37.8,-67l157.9,103.8c0,-0 8,43.9 -77.9,17.6"/>
    <path fill="#1d3666" fill-rule="nonzero" d="m2970.9,1107.9c-24.4,-0.5 -50,1.5 -63.5,8.7 -14.5,7.8 -29.2,-22.4 -7.3,-30.1 21.9,-7.7 54.9,0.4 70.8,21.4"/>
    <path fill="#1d3666" fill-rule="nonzero" d="m2084.6,983.2c99.9,63 258.2,134.4 370.7,250.7 44.2,-53.5 173.4,-95.2 336.1,-159.4 35.1,-3.2 70.2,57.9 43.1,86.2 0,-0 -303.9,244.3 -412.4,231.5 -108.5,-12.8 -402.5,-187.1 -448.4,-228.1 -60.5,-54.1 -74.8,-257.3 110.9,-180.9"/>
    <path fill="#1d3666" fill-rule="nonzero" d="m2796.3,1080.9 l31.8,-13.1c15.7,0.1 42.4,43.1 31.1,63.9l-30.1,20.5 -32.8,-71.3"/>
    <path fill="#ffffff" fill-rule="nonzero" d="m2645.6,707.9 l45.3,-73.3c13.1,-31.3 69.7,-7.5 56.6,23.8l-29.6,79.9c-8.4,19.9 -80.6,-10.5 -72.2,-30.4"/>
    <path fill="#1d3666" fill-rule="nonzero" d="m2094.6,845.5c114.9,27.3 250.6,74.4 373.5,123.8 4.3,-69.3 78,-119.5 171.8,-267.1 26.5,-23.3 90.8,5.5 85.6,44.4 0,-0 -71.2,332.9 -166.5,386.4 -95.3,53.5 -519.2,-73.1 -575.8,-97.2 -45.7,-19.5 -89.1,-202.6 111.4,-190.2"/>
    <path fill="#1d3666" fill-rule="nonzero" d="m2647.7,704.5 l18,-29.3c12.8,-9.2 59.6,9.9 62.7,33.4l-12.3,34.3 -68.5,-38.4"/>
    <path fill="#0f0f10" fill-rule="nonzero" d="m2105.4,1134.6l0,-0zM2105.3,1147c-6.5,-0 -8.3,-8.5 -9.1,-12.1 -2.1,-9.9 -3.1,-27.1 -3.1,-51.3 0,-2.3 1.2,-4.4 3.2,-5.5 2,-1.1 4.4,-1 6.3,0.2 46.4,29.9 222.3,43 224.1,43.1 3.4,0.2 6,3.2 5.7,6.6 -0.3,3.4 -3.3,6 -6.6,5.7 -6.9,-0.5 -161.5,-12.1 -220.3,-39.8 0.5,31.4 3,40 3.8,42 1.3,1.1 2.1,2.8 2.1,4.7 0,3.4 -2.8,6.2 -6.2,6.2"/>
    <path fill="#1d3666" fill-rule="nonzero" d="m2818.7,625.1 l-57.7,34.7c-44.6,-40.1 -70.2,16 -82.8,-8.6 -12.7,-24.6 -8.6,-84.4 -8.6,-84.4l208.1,-7c0,-0 35.2,34.5 -59,65.4"/>
    <path fill="#1d3666" fill-rule="nonzero" d="m2818.7,625.1c-22.3,15.1 -44.1,33.1 -51.7,48.2 -8.1,16.2 -40.5,-1.6 -25.7,-22.4 14.8,-20.9 49.6,-34.6 77.3,-25.8"/>
    <path fill="#1d3666" fill-rule="nonzero" d="m1565.3,889.3c-54.3,16.6 -134.8,182.9 -21.9,250.4 86.7,51.8 304,30.5 448.5,36.2l107.4,-329c-165.9,-52.3 -411.1,-8.1 -534,42.4"/>
    <path fill="#0f0f10" fill-rule="nonzero" d="m2029.3,829.6 l-37.7,349.1l-97.9,-0l-60,-355.4c68.2,-9.8 133.7,-9 195.5,6.2"/>
    <path fill="#f7a593" fill-rule="nonzero" d="m1361.3,1052.5c7.1,22.9 20.7,40.4 39.4,38.3l57.6,-9.9 113.8,-19.9c36.5,-5.3 -2.5,-149.8 -39.2,-144.5l-146.8,41.1c-30.8,3.4 -36.9,56.7 -24.8,94.8"/>
    <path fill="#1d3666" fill-rule="nonzero" d="m1466.1,935.3c0,-0 20.2,10.6 22.2,76.9 1.6,55.6 -11.1,65.3 -11.1,65.3 0,-0 5.9,13.6 30.8,6.8 46.4,6.5 90.8,4.6 117.7,-32.8 28.3,-39.3 5.4,-175.9 -67.9,-159 -31.6,15.4 -53.2,23.9 -53.2,23.9 0,-0 -29.4,-2.6 -38.5,18.9"/>
    <path fill="#f2775e" fill-rule="nonzero" d="m1361.3,1052.5c7.1,22.9 20.7,40.4 39.4,38.3l57.6,-9.9c0.9,-51.4 -39.1,-89.9 -39.1,-89.9l-57.9,61.5"/>
    <path fill="#f7a593" fill-rule="nonzero" d="m1162.8,1051.8c40.3,72.6 153.1,112.4 216.4,77.3 63.3,-35.1 53.1,-131.8 12.8,-204.4 -40.3,-72.6 -124.3,-103 -187.5,-67.9 -63.3,35.1 -81.9,122.5 -41.6,195.1"/>
    <path fill="#0f0f10" fill-rule="nonzero" d="m1387.9,919.3c-90.9,58.1 -166.4,118.5 -223.8,137.1 0,-0 13.3,39.3 41.3,46.1 123.9,-39 186.5,-175.6 186.5,-175.6l-4,-7.6"/>
    <path fill="#f7a593" fill-rule="nonzero" d="m1380.3,971.8c4.6,16.8 15.9,21.5 30.9,12.8 11.9,-6.9 18.7,-24.3 14.1,-41 -4.6,-16.8 -17.7,-23.3 -30.9,-19.7 -13.2,3.7 -18.7,31.1 -14.1,47.9"/>
    <path fill="#803220" fill-rule="nonzero" d="m1292.7,1098c-4.3,-0 -8.3,-2 -11.2,-5.6 -2.5,-3.2 -3.5,-6.7 -3,-10.3 1.2,-7.9 9.3,-13.5 9.7,-13.8 0.8,-0.6 1.9,-0.4 2.5,0.5 0.6,0.8 0.4,1.9 -0.5,2.5 -0.1,0 -7.2,5.1 -8.2,11.4 -0.4,2.7 0.3,5.1 2.3,7.6 2.9,3.7 7.1,5.1 11.5,3.8 5,-1.4 11.3,-7 12.6,-18.2 0.1,-1 1,-1.7 2,-1.5 1,0.1 1.7,1 1.6,2 -1.5,12.9 -8.8,19.4 -15.2,21.2 -1.4,0.4 -2.7,0.6 -4,0.6"/>
    <path fill="#f7a593" fill-rule="nonzero" d="m1269.1,1027.8c4.7,8.9 16.8,11.6 27,6.2 10.3,-5.4 14.8,-17 10.2,-25.8 -4.7,-8.9 -16.8,-11.6 -27,-6.2 -3.8,8.6 -5.7,15.3 -10.2,25.8"/>
    <path fill="#f7a593" fill-rule="nonzero" d="m1187.9,1072.7c4.7,8.8 15,13.3 24.8,9.2 9.8,-4.1 12.1,-14.9 8.2,-24.1 -8.1,-1.8 -10.9,-1.8 -21.8,-4.5 -11,-2.7 -16.9,8.5 -11.2,19.4"/>
    <path fill="#0f0f10" fill-rule="nonzero" d="m1285,1026.1c3.8,3.3 8.4,4.3 10.3,2.1 1.9,-2.2 0.3,-6.6 -3.5,-9.9 -3.8,-3.3 -8.4,-4.3 -10.3,-2.1 -1.9,2.1 -0.3,6.6 3.5,9.9"/>
    <path fill="#0f0f10" fill-rule="nonzero" d="m1204.6,1073.9c4,3.1 8.6,3.8 10.4,1.6 1.8,-2.3 -0,-6.6 -4,-9.7 -4,-3.1 -8.6,-3.8 -10.4,-1.6 -1.8,2.3 0,6.6 4,9.7"/>
    <path fill="#ffffff" fill-rule="nonzero" d="m1372.2,1036.3c0,-0 -7.9,46.1 -54.7,68.1 34.7,19.7 50.9,8.8 50.9,8.8 0,-0 22.2,-35.1 3.8,-76.9"/>
    <path fill="#bd4a31" fill-rule="nonzero" d="m1384.8,1036c-0.8,-0 -1.6,-0.6 -1.7,-1.5 -0.4,-2.4 -3.3,-5.7 -7.7,-7.3 -2.7,-0.9 -7.9,-1.9 -13,2.5 -0.7,0.6 -1.9,0.6 -2.5,-0.2 -0.6,-0.7 -0.6,-1.9 0.2,-2.5 4.7,-4 10.7,-5.2 16.5,-3.2 5.2,1.8 9.3,5.9 10.1,10 0.2,1 -0.5,1.9 -1.4,2.1l-0.3,0"/>
    <path fill="#1d3666" fill-rule="nonzero" d="m1396.2,911.1c-110.4,8 -172.1,26.7 -261.3,82.2 0,-0 -21.9,-172.4 119,-198.5 119.9,-22.1 142.3,116.3 142.3,116.3"/>
    <path fill="#1d3666" fill-rule="nonzero" d="m1145.3,1009.4c46.1,-47.7 242.4,-79.8 278.1,-71.6 10.2,0.5 -0.4,-50.9 -35.3,-58 -21.1,-4.3 -164.4,12.8 -254.1,76.6 -26.7,19 -1.2,63.5 11.4,53"/>
    <path fill="#1d3666" fill-rule="nonzero" d="m1239,821.7c6.5,18.8 35.2,26 64.3,16.1 29,-9.9 47.3,-33.3 40.9,-52.1 -6.5,-18.8 -35.2,-26 -64.3,-16.1 -29,10 -47.3,33.3 -40.9,52.1"/>
    <path fill="#2458a7" fill-rule="nonzero" d="m1134,959.9c-1.1,-0 -2.2,-0.5 -2.9,-1.5 -1.1,-1.6 -0.8,-3.8 0.8,-4.9 58.1,-42.1 124.7,-60.9 170.3,-69.2 49.4,-9 85.7,-8.1 86,-8.1 1.9,0.1 3.5,1.7 3.4,3.6 -0.1,2 -1.6,3.5 -3.7,3.5 -0.3,-0 -36,-0.9 -84.7,8 -44.9,8.2 -110.3,26.7 -167.2,67.9 -0.6,0.5 -1.4,0.7 -2.1,0.7"/>
    <path fill="#bd4a31" fill-rule="nonzero" d="m1300.9,948.1c0,-0 2.6,18.1 -20.8,20.9 -23.3,2.8 -23.3,-2.8 -23.3,-2.8 0,-0 0.6,34.8 -36.8,40.6 -19,3 -26.9,-14.7 -26.9,-14.7 -13.8,51.3 -79.4,84.3 -104.9,44.2 -15.3,-48.5 34.2,-52.7 53.2,-47 7.3,-7.2 101.2,-45.1 159.5,-41.1"/>
    <path fill="#1d3666" fill-rule="nonzero" d="m1523.1,1232.7c-50.1,22.1 -124,37.4 -162.8,61.2l-23.5,70.7c37.3,32.8 176.8,12.6 242.5,-12.1 79.4,-39.3 23.2,-158.9 -56.2,-119.7"/>
    <path fill="#f7a58e" fill-rule="nonzero" d="m1356.9,1302.3c23.6,10.8 27.9,45.4 8.9,63.1 -12.1,11.2 -33.5,4.3 -39.5,2 -1,-0.4 -1.6,-0.6 -1.6,-0.6 0,-0 -1.7,1.7 -4.7,3.9 -4.2,3.3 -11,7.6 -19.1,9.5 -13.7,3.1 -54.4,-30.5 -57.2,-60.1 -2.8,-29.5 53.4,-33.6 57.9,-34.7 4.5,-1.2 55.2,17 55.2,17"/>
    <path fill="#f17b60" fill-rule="nonzero" d="m1320,1370.6c-0.2,-1.7 -0.2,-18.6 -27.2,-47.2 27.6,18.1 41.6,22 51.7,22 2.7,-0 5.2,-0.3 7.5,-0.7 -6.7,6.5 -14.5,8 -20.2,8 -4.5,-0 -7.6,-0.9 -7.6,-0.9 0,-0 1.7,9.3 1.9,15.5 -1,-0.4 -1.6,-0.6 -1.6,-0.6 0,-0 -1.7,1.7 -4.7,3.9l0,-0"/>
    <path fill="#0f0f10" fill-rule="nonzero" d="m1251.4,1299.6 l5.8,-15.2 -35.1,-13.4 -5.8,15.2 35.1,13.4"/>
    <path fill="#0f0f10" fill-rule="nonzero" d="m1341.6,1340.3c9.6,3.7 19.5,-22.4 10,-26.1l-100.1,-38.3c-8.5,-3.2 -18.4,22.9 -10,26.1l100.1,38.3"/>
    <path fill="#595a5a" fill-rule="nonzero" d="m1109.8,1277.1c-46.2,-17.7 -79.4,-43.2 -74.3,-56.7 0.2,-0.6 0.4,-1 0.8,-1.6 1.7,-2.5 4.5,-4.2 8.4,-5.3 5.8,-1.6 13.8,-2.1 23.5,-1.2 16.6,1.3 38,6.7 60.4,15.2 22.4,8.6 41.7,18.8 55,28.9 7.8,5.8 13.4,11.5 16.7,16.6 2.2,3.5 3.2,6.7 2.7,9.6 -0,0.7 -0.2,1.1 -0.4,1.7 -5.1,13.5 -46.9,10.3 -92.9,-7.2zM1108,1281.8c55.1,21.1 104.9,24.9 111.1,8.7 1.2,-3.1 0.6,-6.6 -1.4,-10.7 -1.7,-3.7 -4.9,-7.8 -9,-12 -1,-1.1 -2.3,-2.1 -3.5,-3.2 -15.5,-14 -42.4,-29.5 -74.7,-41.9 -32.3,-12.3 -62.9,-18.8 -83.8,-18.7 -1.7,0.1 -3.3,-0.1 -4.8,0.1 -5.8,0.4 -10.9,1.3 -14.7,2.9 -4.2,1.7 -7,4 -8.2,7.1 -6.2,16.2 33.5,46.5 88.8,67.7"/>
    <path fill="#0f0f10" fill-rule="nonzero" d="m1217.8,1279.8c2,4.1 2.5,7.6 1.4,10.7l6.9,-18c6.3,-16.4 -33.5,-46.5 -88.6,-67.6 -55.3,-21.1 -105.1,-25.2 -111.3,-8.8l-6.9,18c1.2,-3.1 4,-5.4 8.2,-7.1 3.7,-1.7 8.8,-2.6 14.7,-2.9 1.5,-0.1 3.1,-0 4.8,-0.1 20.9,-0.1 51.5,6.4 83.8,18.7 32.3,12.3 59.2,27.8 74.7,41.9 1.2,1.2 2.5,2.1 3.5,3.2 4.1,4.2 7.3,8.2 9,12"/>
    <path fill="#0f0f10" fill-rule="nonzero" d="m1109.8,1277.1c46,17.6 87.8,20.7 92.9,7.2 0.2,-0.6 0.4,-1 0.4,-1.7 0.4,-2.9 -0.5,-6.1 -2.7,-9.6 -5.9,1.8 -14.3,2.1 -24.4,1.1 -16.5,-1.5 -37.3,-6.7 -59.3,-15.1 -22,-8.4 -41.1,-18.5 -54.4,-28.4 -8.2,-6 -14.2,-11.8 -17.4,-17.1 -4,1.1 -6.8,2.9 -8.4,5.3 -0.4,0.5 -0.6,1 -0.8,1.6 -5.1,13.5 28.1,39 74.3,56.7"/>
    <path fill="#ffffff" fill-rule="nonzero" d="m1115,1265.1c47.2,18 79.7,10.7 85.9,8.3 -14.7,-21.5 -49.2,-37.1 -71.6,-45.6 -54.4,-20.8 -79.3,-15.8 -85.3,-13.6 3,5.9 23.3,32.7 71.1,50.9"/>
    <path fill="#f7a58e" fill-rule="nonzero" d="m1251.6,1305.9c0,-0 29.4,-1.4 47.3,23.1 17.9,24.5 12.6,41.9 1.1,41.5 -11.5,-0.5 -44.5,-56.4 -48.4,-64.6"/>
    <path fill="#f7a58e" fill-rule="nonzero" d="m1343.8,1351c-36.3,2.7 -60.4,-43.9 -60.4,-43.9 0,-0 -22.4,-4.9 -28.2,-13.4 -7.8,-11.4 6.8,-18.3 6.8,-18.3 3.9,-1.6 84.1,21.4 82.4,23.1 0,-0 19.3,8.3 17.2,29.7 -2.1,21.4 -17.8,22.8 -17.8,22.8"/>
    <path fill="#dc3e26" fill-rule="nonzero" d="m1342.7,1351.4 l0,-0.1c-0,-0.6 -0.5,-1 -1.1,-1 -34.7,0.5 -57.2,-43.3 -57.4,-43.7 -0.3,-0.5 -0.9,-0.7 -1.4,-0.5 -0.5,0.3 -0.7,0.9 -0.5,1.4 0.2,0.5 23.3,45.4 59.3,44.9 0.5,-0 1,-0.4 1,-0.9"/>
    <path fill="#1d3666" fill-rule="nonzero" d="m1344.4,1298.5c0,-0 11.2,-9.7 23.2,-6 11.9,3.7 25.7,31.8 21.3,50 -4.7,19.4 -9.8,33.5 -26.9,35.7 -17,2.1 -20.4,-7 -20.4,-7 0,-0 20.7,-2.9 20.8,-37.3 0.1,-27.8 -12.1,-34.7 -18.1,-35.4"/>
    <path fill="#1d3666" fill-rule="nonzero" d="m1716.3,1096.2 l101.7,109.1c-18.7,24.6 -48.8,159.7 -26.4,194.9l62,9.1c50.3,-2.6 109.3,-183.5 81.9,-236.8 -38.7,-128.1 -128.8,-267.3 -128.8,-267.3 -67.1,-32.1 -238.4,92.9 -90.3,191"/>
    <path fill="#1d3666" fill-rule="nonzero" d="m1869.5,1393.5c0,-0 8.5,15.2 -2.7,23.5 -11.2,8.3 -89.8,2.7 -83.9,-27.2 3.9,-19.4 76.5,-11.3 86.6,3.7"/>
    <path fill="#f7a593" fill-rule="nonzero" d="m1855.9,1409.9 l-11.6,45.8c-9,22.5 -60.5,-11.9 -57.8,-31.7l9.5,-28.5c9.6,-7.8 52.7,3.5 59.8,14.4"/>
    <path fill="#a34c39" fill-rule="nonzero" d="m1789.7,1459.3c0,-0 28.8,54.1 -49.1,31.9 -36.9,-36.4 37.3,-55.1 49.1,-31.9"/>
    <path fill="#f7a593" fill-rule="nonzero" d="m1844,1453.4c0,-0 5.8,31.7 -12.5,48.3 -18.3,16.6 -33.8,27.9 -33.8,27.9 0,-0 -7.2,-1.7 -5.7,-11.5 1.5,-9.8 18.2,-22.1 19,-25.7 4.7,-18.9 -3.7,-23.7 -19.9,-22.9 -13.5,0.7 -31.3,68.5 -45,65.6 -8.2,-1.8 -6.2,-28.5 -1.8,-41.8 -25,-10.6 -27.8,-47.3 41.6,-70.8 51.1,-20.9 58.1,30.9 58.1,30.9"/>
    <path fill="#dc3e26" fill-rule="nonzero" d="m1744.4,1494.4c-0.1,-0 -0.3,-0 -0.4,-0.1 -0.6,-0.2 -0.9,-0.9 -0.7,-1.4l10.5,-29.3c0.2,-0.6 0.9,-0.9 1.4,-0.7 0.6,0.2 0.9,0.9 0.7,1.4l-10.5,29.3c-0.2,0.5 -0.6,0.7 -1.1,0.7"/>
    <path fill="#0f0f10" fill-rule="nonzero" d="m1792.9,1181.9c-1.6,-0 -3.2,-0.6 -4.5,-1.9l-75.5,-78.3c-7.3,-2.5 -37.1,-14.2 -50.9,-40.2 -1.6,-3 -0.5,-6.8 2.6,-8.4 3,-1.6 6.8,-0.5 8.4,2.6 13,24.5 44.9,34.6 45.2,34.7 1,0.3 1.9,0.9 2.6,1.6l76.5,79.4c2.4,2.5 2.3,6.4 -0.2,8.8 -1.2,1.2 -2.8,1.7 -4.3,1.7"/>
    <path fill="#0f0f10" fill-rule="nonzero" d="m1977.9,840.5 l-0.3,-0c-3.4,-0.1 -6.1,-3 -5.9,-6.5 0,-0.3 1.2,-32 -15.5,-49.4 -7.2,-7.5 -16.9,-11.3 -28.9,-11.3 -12.6,-0 -22.5,3.9 -29.5,11.5 -14.8,16.1 -12.7,43.8 -12.7,44 0.3,3.4 -2.3,6.4 -5.7,6.7 -3.4,0.3 -6.4,-2.3 -6.7,-5.7 -0.1,-1.3 -2.5,-33.4 16,-53.5 9.4,-10.3 22.5,-15.5 38.7,-15.5 15.5,-0 28.2,5.1 37.9,15.2 20.3,21.2 18.9,56.9 18.9,58.4 -0.1,3.3 -2.9,5.9 -6.2,5.9"/>
    <path fill="#0f0f10" fill-rule="nonzero" d="m1919.8,660.3c-3.4,-0 -6.2,-2.8 -6.2,-6.2l0,-1116.4c0,-3.4 2.8,-6.2 6.2,-6.2 3.4,-0 6.2,2.8 6.2,6.2l0,1116.4c0,3.4 -2.8,6.2 -6.2,6.2"/>
    <path fill="#0f0f10" fill-rule="nonzero" d="m1919.7,653.3c-6.2,-0 -11.3,5.1 -11.3,11.3 0,4.2 2.4,8 6.4,10 3,1.5 4.3,5.1 2.9,8.1 -7.1,15.7 -16,39 -17.8,60.8 -1,12.2 5.9,18.2 10.2,20.7 8.1,4.8 18.9,4.8 26.2,-0 6.7,-4.4 9.4,-12.3 8,-22.7 -3.6,-26.2 -13.1,-46.8 -20.5,-59.5 -1.6,-2.8 -0.8,-6.5 2,-8.3 3.3,-2.2 5.3,-5.6 5.3,-9.2 0,-6.2 -5.1,-11.3 -11.3,-11.3zM1923.5,780.3c-6.8,-0 -13.7,-1.8 -19.7,-5.4 -11.5,-6.8 -17.4,-18.6 -16.2,-32.5 1.8,-21.4 9.7,-43.7 16.8,-60.1 -5.2,-4.4 -8.3,-10.9 -8.3,-17.8 0,-13.1 10.6,-23.7 23.7,-23.7 13.1,-0 23.7,10.6 23.7,23.7 0,5.9 -2.3,11.5 -6.4,15.8 7.4,13.8 16,34.3 19.5,59.5 2.8,20.5 -7.2,30.5 -13.4,34.7 -5.7,3.8 -12.6,5.7 -19.6,5.7"/>
  </g>
</svg>